<svg xmlns="http://www.w3.org/2000/svg" width="512" height="512"><path d="M269.25 18.438C275.261 21.83 280.11 26.17 285 31l1.79 1.605C309.39 53.438 324.962 88.635 328 119q.026 2.332.016 4.664l-.007 2.46L328 128l2.086-.011q25.152-.134 50.305-.196 12.164-.028 24.327-.095 10.605-.06 21.21-.074c3.742-.006 7.483-.018 11.225-.047 4.182-.032 8.364-.033 12.546-.031l3.738-.044c8.066.039 13.568.997 19.805 6.463l1.633 1.972 1.68 1.965c2.642 3.835 3.695 7.31 3.691 11.946l.012 2.89-.017 3.151.005 3.367c.003 3.73-.008 7.459-.019 11.189v8.012q.002 8.63-.016 17.26c-.016 8.318-.021 16.637-.024 24.955q-.007 20.244-.036 40.489-.028 19.665-.041 39.33l-.002 2.449-.007 12.163Q480.068 365.552 480 416l2.484-.14 3.266-.11 3.234-.14c3.686.477 4.772 1.497 7.016 4.39.515 2.109.515 2.109.533 4.395l.048 2.611-.015 2.807.02 2.923q.01 3.066-.01 6.133c-.013 3.093.02 6.183.059 9.276.059 14.92-1.667 26.755-12.635 37.855-2.845 2.368-5.708 4.309-9 6l-1.854.992c-8.185 3.86-16.305 3.57-25.137 3.523q-2.586.008-5.172.02c-4.72.02-9.44.013-14.16.003-5.098-.007-10.196.009-15.293.022-9.98.021-19.96.021-29.94.013q-12.168-.008-24.338.001l-3.5.003-7.042.006c-22.003.016-44.006.007-66.01-.01-20.121-.014-40.243 0-60.364.03a32908 32908 0 0 1-72.516.026q-12.15-.002-24.299.022-14.813.027-29.627-.005c-5.037-.012-10.073-.015-15.11.004q-6.923.024-13.845-.014-2.498-.008-4.994.011c-13.458.097-24.125-2.474-34.608-11.409-8.404-8.584-11.662-19-11.625-30.722l-.015-2.964q-.01-3.081.003-6.162a738 738 0 0 0-.052-9.433q-.003-3.002.002-6.004l-.034-2.844.028-2.651v-2.322c.721-3.07 2.053-4.183 4.502-6.136 3.016-.39 3.016-.39 6.25-.25l3.266.11L32 416l-.005-1.728a71423 71423 0 0 1-.215-113.616l-.003-2.45c-.017-13.086-.049-26.172-.086-39.258q-.056-20.144-.067-40.287a7623 7623 0 0 0-.056-24.857q-.03-8.523-.022-17.048.005-4.917-.023-9.834c-.02-3.557-.015-7.114-.004-10.672l-.035-3.124c.06-7.383 1.567-12.761 6.48-18.368l1.974-1.633 1.964-1.68c4.17-2.873 7.8-3.695 12.824-3.686l3.463-.008 3.771.022h3.993c3.605-.002 7.21.01 10.814.024 3.77.013 7.541.014 11.311.016q10.704.011 21.409.043c8.125.022 16.251.033 24.377.043q25.068.032 50.136.101l-.016-3.85C183.84 89.64 204.464 53.885 228 30l2.273-2.312c11.038-10.52 24.349-15.946 38.977-9.25m-25.912 20.007C237.91 43.443 232.514 48.438 229 55c10.479 7.224 21.204 10.12 33.938 8.375C269.26 62.16 275.347 60.103 281 57l2-3c-17.04-21.154-17.04-21.154-39.662-15.555M219 69c-6.78 11.465-11.354 23.198-15 36l-.59 2.064c-10.636 39.257 3.216 87.758 9.172 126.952l.39 2.59.367 2.387.315 2.065c.356 2 .853 3.972 1.346 5.942h82c3.835-22.553 3.835-22.553 7.168-45.168l.502-3.703q.511-3.777 1.015-7.556.763-5.699 1.54-11.395c1.435-10.617 2.85-21.236 4.021-31.885l.248-2.17C314.261 118.66 306.387 91.665 293 69l-2.895 1.426c-17.883 8.687-36.525 12.39-55.964 5.863C228.935 74.152 223.93 71.71 219 69M50 147c-1.831 2.954-2.25 5.182-2.246 8.63l-.012 2.823.017 3.088-.005 3.282c-.003 3.653.008 7.305.019 10.957v7.962q-.001 9.596.02 19.193c.015 7.4.016 14.799.018 22.198.01 19.54.038 39.078.064 58.617L48 416h416l.188-132.187.082-41.786c.01-12.328.01-12.328.016-24.656q.005-8.256.03-16.511.03-9.518.024-19.035-.003-4.87.018-9.74c.014-3.475.011-6.949.003-10.423l.026-3.08c-.03-6.788-.03-6.788-3.387-12.582-2.539-1.27-4.295-1.123-7.138-1.12l-3.297-.004-3.634.01h-3.813q-5.185.001-10.37.013-5.415.007-10.83.008-10.259.005-20.516.021-11.678.016-23.354.022-24.024.016-48.048.05l1.227 1.415 1.622 1.879 1.602 1.853C357.188 177.348 369.219 214.736 368 250c-.875 3.375-.875 3.375-2 6-3.115 1.558-6.604 1.565-10 1-2.994-2.212-4.16-5.176-5.687-8.5-4.48-9.114-10.23-16.652-17.313-23.875l-1.436-1.479c-3.79-3.74-7.971-6.472-12.564-9.146l-.411 2.5a6687 6687 0 0 1-3.97 23.811q-.556 3.315-1.102 6.632-.557 3.375-1.142 6.744l-.602 3.575c-.814 2.883-1.342 4.032-3.773 5.738a93 93 0 0 1-4 1l-.044 2.523q-.092 4.637-.218 9.275a747 747 0 0 0-.119 5.985l-.107 3.799-.08 3.507C303 292 303 292 301.996 293.658c-3.196 2.149-6.644 1.758-10.367 1.73l-2.588.016a998 998 0 0 1-8.478-.006q-2.943.003-5.885.01-6.169.005-12.337-.017c-5.277-.017-10.552-.007-15.829.01-4.05.012-8.101.008-12.152 0q-2.92-.004-5.837.008a963 963 0 0 1-8.152-.02l-2.446.018c-5.412-.062-5.412-.062-7.921-1.75-1.592-2.629-1.447-5.031-1.516-8.075l-.107-3.799-.069-3.97q-.05-2.004-.103-4.006-.124-4.904-.209-9.807l-2.375-.875C203 262 203 262 201 260c-.638-2.727-.638-2.727-1.184-6.195l-.618-3.84-.636-4.09q-.493-3.084-.991-6.168-.328-2.031-.653-4.062c-1.163-7.243-2.504-14.447-3.918-21.645-15.83 8.958-25.482 23.02-33.738 38.785C158 255 158 255 156 257c-4.14.197-7.077.308-11-1-.467-21.532.63-40.699 8-61l.75-2.073c5.897-15.97 14.207-30.027 25-43.17 2.3-2.729 2.3-2.729 4.25-5.757q-24.904-.106-49.808-.155a9453 9453 0 0 1-23.127-.071q-10.08-.046-20.158-.056-5.337-.004-10.673-.035a1893 1893 0 0 0-11.916-.024l-3.573-.032-3.284.012-2.847-.008c-3.209.453-5.036 1.419-7.614 3.369m136 19c-8.543 12.454-15.375 25.364-20 39.75l-.667 2.06c-1 3.3-1.45 4.842-.333 8.19l2.625-2.875c3.567-3.582 7.457-6.514 11.563-9.437l1.836-1.31c2.896-2.032 5.744-3.926 8.976-5.378-.568-10.408-1.602-20.673-3-31zm139 1q-.756 5.843-1.5 11.688l-.434 3.341-.41 3.233-.38 2.967c-.263 2.638-.462 5.126-.276 7.771 1.873 1.893 1.873 1.893 4.438 3.375 5.076 3.3 9.823 6.86 14.562 10.625l2.938 2.313C346 214 346 214 348 216c-2.032-16.792-10.1-35.009-21-48zm-101 97v16h64v-16zM32 432c-1.569 23.113-1.569 23.113 8 42 8.81 7.439 20.42 6.287 31.283 6.254q2.49.003 4.979.01c4.546.008 9.091.004 13.637-.003 4.908-.004 9.816.003 14.724.008 9.61.01 19.218.007 28.827.002q11.715-.007 23.43-.003h3.37l6.776.003q31.767.006 63.532-.012 27.252-.012 54.505.002a79302 79302 0 0 0 70.056.007l3.356-.001q11.7-.003 23.4.006 14.26.009 28.52-.007 7.274-.009 14.548 0 6.663.007 13.324-.009 2.408-.002 4.814.004c15.553.274 15.553.274 29.126-6.421C483.336 462.42 480 447.163 480 432H336l-8 16c-5.676 6.81-5.676 6.81-9.75 9.188l-2.36 1.417c-7.202 3.475-13.653 4.842-21.626 4.815l-2.812.026a1135 1135 0 0 1-9.128.023l-6.4.023q-6.693.019-13.387.009c-5.692-.006-11.384.025-17.076.065-4.404.026-8.807.029-13.211.025q-3.147.002-6.292.03c-14.634.11-26.305-.894-37.993-10.68-6.25-6.175-8.665-12.69-11.965-20.941zm162 0c3.145 7.184 3.145 7.184 8.25 11.375l2.14 1.398c6.165 2.898 12.22 3.523 18.919 3.486l2.388.01c2.58.01 5.16.003 7.74-.003l5.424.005q5.67.005 11.337-.01c4.829-.012 9.657-.005 14.485.007q5.595.009 11.19 0 2.67-.003 5.34.005c2.493.005 4.985-.003 7.478-.014l2.199.012c6.727-.055 13.127-1.15 18.86-4.896l2.172-1.352c2.93-2.63 2.93-2.63 6.078-10.023z"/><path d="M228 312c3.41 2.854 4.6 5.008 5.492 9.332l.688 3.149.695 3.332c4.702 21.286 4.702 21.286 17.625 38.312 2.528 1.094 2.528 1.094 5.438.5C267.472 361.566 270.72 350.67 274 341c1.875-6.196 3.335-12.5 4.543-18.86.627-3.279 1.283-5.866 3.082-8.702 3.472-2.102 6.425-2.19 10.375-1.438 2.5 1.313 2.5 1.313 4 4 .815 7.751-.565 14.876-2.625 22.313l-.823 3.035c-4.781 17.118-11.573 31.016-26.24 41.59-7.216 2.314-14.773 2.203-21.687-1-16.444-9.602-21.771-28.354-26.66-45.586-4.182-16.38-4.182-16.38-.465-23.04 3.441-1.806 6.706-2.32 10.5-1.312m41-206.437c7.858 4.237 15.542 11.223 18.45 19.816 2.102 10.006 1.505 19.146-3.692 28.066-5.09 7.398-10.96 12.15-19.758 14.555-10.116 1.14-18.743.613-27.14-5.578-6.263-5.149-10.712-10.527-12.86-18.422-1.016-11.397-.11-20.156 7.25-29.25 9.504-10.238 24.43-14.613 37.75-9.187m-22.96 18.109c-3.964 4.173-6.148 7.369-6.04 13.328.751 6.009 3.286 8.946 7.852 12.613 4.261 2.751 7.77 2.56 12.648 1.95 4.828-2.156 7.648-5.144 10.5-9.563 1.546-5.184 1.203-9.065-1-14-3.37-3.952-6.56-6.57-11.562-8.062-4.926.09-8.533.438-12.399 3.734"/><path d="m256 311.5 2-.031c2.918.775 4.093 2.222 6 4.531.518 2.594.518 2.594.531 5.5l.016 3.188L264.5 328c.015 1.093.03 2.186.047 3.313l-.016 3.187-.013 2.906c-.66 3.307-1.93 4.503-4.518 6.594-2 .531-2 .531-4 .5l-2 .031c-2.918-.775-4.093-2.222-6-4.531-.518-2.594-.518-2.594-.531-5.5l-.016-3.187.047-3.313c-.015-1.093-.03-2.186-.047-3.312l.016-3.188.013-2.906c.915-4.582 3.844-7.167 8.518-7.094"/></svg>