<svg xmlns="http://www.w3.org/2000/svg" width="512" height="512"><path d="m127.055 2.866 3.785-.014h4.165q2.21-.003 4.419-.01 6.08-.014 12.16-.017 6.555-.007 13.109-.022c10.555-.02 21.11-.03 31.666-.039l14.912-.015a83844 83844 0 0 1 62.436-.044l3.23-.002c17.264-.008 34.53-.033 51.794-.066q26.588-.049 53.177-.054c9.952-.002 19.905-.01 29.857-.036q12.714-.034 25.427-.02c4.323.004 8.646.002 12.97-.017q5.941-.026 11.884-.001 2.145.003 4.288-.014C477.153 2.41 486.448 3.935 495 11c8.938 9.487 11.462 17.664 11.388 30.524l.016 3.428c.014 3.774.007 7.548 0 11.323q.008 4.069.02 8.137c.018 6.594.019 13.188.014 19.782q-.006 8.043.002 16.086l.003 2.316.004 4.66c.014 14.55.009 29.101-.003 43.652-.01 13.297.003 26.594.027 39.89q.037 20.505.027 41.01a8388 8388 0 0 0 .017 23.005q.022 9.792-.002 19.583-.014 4.99.004 9.98c.013 3.616.002 7.23-.016 10.846l.03 3.15c-.104 10.295-2.945 19.105-10.105 26.616-6.835 5.668-14.903 9.098-23.733 9.217l-3.943.06q-2.13.027-4.262.051l-4.359.063q-5.733.083-11.467.153-5.85.077-11.703.161-11.48.162-22.959.307v3l3.156 1.102c7.903 2.768 15.773 5.6 23.6 8.574 5.465 2.062 10.974 3.98 16.494 5.887 6.204 2.145 12.263 4.44 18.285 7.058 2.99 1.19 5.977 2.257 9.024 3.29l3.076 1.042q3.043 1.023 6.095 2.017c14.066 4.724 14.066 4.724 18.27 11.03.148 3.246-.293 5.2-2.469 7.664-4.503 4.041-9.448 7.533-14.363 11.05-4.337 3.13-8.607 6.343-12.88 9.56-3.601 2.711-7.21 5.412-10.835 8.093l-2.228 1.654a1170 1170 0 0 1-4.26 3.146c-3.504 2.445-3.504 2.445-5.965 5.833l1.703.719c2.816 1.57 4.777 3.496 7.047 5.781l2.422 2.406C472 436 472 436 472 438l1.784.8c2.302 1.246 3.82 2.55 5.668 4.393l1.981 1.962 2.106 2.118 2.188 2.183q2.286 2.283 4.564 4.574c2.325 2.336 4.661 4.661 6.998 6.986q2.22 2.221 4.438 4.445l2.118 2.106 1.962 1.981 1.727 1.732c2.428 2.85 3.483 4.836 3.41 8.607-1.176 3.877-3.23 6.138-6.046 8.914l-1.56 1.581a410 410 0 0 1-3.283 3.27 368 368 0 0 0-4.957 5.022 1335 1335 0 0 1-3.2 3.19l-1.471 1.517C486.81 506.88 483.99 507.816 479 508c-2.187-.934-2.187-.934-4-2.437l-1.812-1.434c-1.922-1.87-3.65-3.78-5.399-5.809-3.931-4.551-8.138-8.781-12.414-13.007l-2.234-2.221a4264 4264 0 0 0-4.278-4.245c-2.295-2.275-4.58-4.56-6.863-6.847l-3.77-3.77L427 457c-4.009 3.805-7.296 7.862-10.562 12.313l-3.18 4.285-1.632 2.207c-3.085 4.164-6.203 8.303-9.318 12.445a881 881 0 0 0-6.921 9.316l-1.228 1.67q-1.616 2.2-3.221 4.409c-1.857 2.257-3.435 3.855-5.938 5.355-3.5.063-3.5.063-7-1-3.022-3.911-4.887-7.81-6.562-12.437l-.723-1.976A1069 1069 0 0 1 368 486l-1.282-3.613-1.41-3.977-.726-2.049a3646 3646 0 0 1-3.623-10.269c-2.212-6.285-4.495-12.518-7.012-18.687-1.787-4.537-3.316-9.165-4.884-13.78-2.512-7.326-5.108-14.531-8.25-21.613C340 410 340 410 340 408l-2 .006a76446 76446 0 0 1-131.496.269l-2.836.004c-15.143.021-30.286.06-45.43.107q-23.316.07-46.633.084a8155 8155 0 0 0-28.762.07q-9.87.038-19.738.028c-3.793-.004-7.586.001-11.379.028-4.12.029-8.241.019-12.362.005l-3.597.044c-10.039-.089-18.766-2.546-26.267-9.457-8.496-9.413-9.807-20.128-9.76-32.402-.005-1.098-.008-2.195-.012-3.326-.01-3.662-.007-7.323-.003-10.985l-.015-7.896q-.018-9.596-.012-19.193.002-7.804-.005-15.61l-.001-2.248-.004-4.522q-.014-21.184-.003-42.368c.006-12.902-.006-25.803-.025-38.705q-.03-19.9-.024-39.8c.002-7.44 0-14.881-.014-22.322q-.019-9.503-.002-19.004.01-4.842-.005-9.684c-.01-3.51-.002-7.019.01-10.528l-.022-3.047c.092-12.127 2.813-22.172 10.956-31.294 8.888-8.548 20.318-8.821 31.953-8.645q2.196.012 4.392.018c3.816.015 7.63.054 11.446.098 3.909.042 7.818.06 11.726.08 7.642.042 15.283.11 22.924.195a4143 4143 0 0 1-.11-18.732q-.015-3.18-.04-6.363c-.025-3.06-.037-6.121-.045-9.182l-.032-2.842C92.772 31.214 94.322 23.866 100 16l2.063-3.125c5.971-6.986 16.138-9.995 24.992-10.01m-12.93 19.947-1.68 1.457C101.685 37.154 109 75.523 109 78h382c3.354-40.155 3.354-40.155-5-55-6.033-4.497-11.79-5.124-19.135-5.129l-3.684-.01-4.022.005-4.293-.007q-5.89-.008-11.782-.004-6.356-.002-12.711-.01-12.45-.012-24.9-.012-10.119 0-20.238-.006a114845 114845 0 0 0-63.63-.012q-25.1-.002-50.2-.023-25.77-.023-51.542-.02-14.469.001-28.938-.014-12.317-.015-24.635-.005-6.285.007-12.568-.005-5.755-.011-11.51.002-2.079.003-4.159-.005c-12.806-.406-12.806-.406-23.928 5.068M18 101c-6.318 15.796-2 33.987-2 51h382c3.642-40.16 3.642-40.16-5-54-5.299-4.326-9.302-5.124-15.986-5.131l-3.737-.012-4.112.003-4.364-.01q-6.003-.011-12.006-.01-6.472-.005-12.943-.016-14.154-.02-28.308-.024l-17.671-.012q-24.457-.019-48.915-.026h-6.333l-6.36-.002h-3.187q-25.566-.009-51.132-.046-26.241-.035-52.481-.037-14.737.001-29.473-.025-12.547-.023-25.093-.012-6.403.008-12.805-.011-5.861-.019-11.723 0-2.12.004-4.24-.01C32.025 92.562 24.856 92.775 18 101m390-8c1.464 3.672 1.464 3.672 3.108 7.265 1.245 3.818 1.18 7.525 1.17 11.499l.018 2.673c.017 2.956.02 5.911.023 8.867l.03 6.357c.028 5.753.043 11.507.056 17.26.015 6.013.042 12.026.068 18.038.047 11.386.083 22.772.116 34.158.039 12.963.088 25.925.138 38.888q.154 39.998.273 79.995 12.556.106 25.114.155c3.888.016 7.775.037 11.662.071 3.755.033 7.509.05 11.263.059q2.145.008 4.289.032c2.008.022 4.016.023 6.024.024l3.459.02c5.248-.594 9.153-2.746 12.502-6.798.49-.577.982-1.153 1.488-1.747 2.85-4.317 2.337-9.315 2.32-14.307l.002-2.622q0-4.355-.01-8.71l.001-6.238q-.001-8.475-.013-16.952c-.006-5.903-.006-11.806-.008-17.709q-.005-16.77-.021-33.542-.016-19.092-.022-38.183-.016-39.276-.05-78.553zM16 168l-.25 105.5-.11 33.318c-.014 9.852-.014 9.852-.022 19.703q-.007 6.585-.04 13.17-.04 8.4-.03 16.8a887 887 0 0 1-.025 6.164 747 747 0 0 0-.004 8.335l-.035 2.428c.058 5.568 1.319 9.965 4.516 14.582 4.67 3.717 8.248 5.125 14.148 5.123l3.248.006 3.582-.009 3.794.003q5.223.002 10.446-.007 5.629-.005 11.258-.002 9.756 0 19.511-.008 14.105-.011 28.21-.012 22.883-.004 45.767-.019 22.23-.014 44.463-.02h2.768l13.744-.005q57.03-.016 114.061-.05l-1.237-3.06-1.628-4.047-.812-2.008c-2.388-5.943-4.434-11.972-6.385-18.072-2.26-7.06-4.766-13.89-7.669-20.709-2.228-5.449-4.075-11.028-5.956-16.604q-1.159-3.423-2.325-6.844l-1.014-3.006c-.904-2.614-.904-2.614-2.075-4.847-1.236-2.479-1.31-4.069-.899-6.803 1.5-2.312 1.5-2.312 4-4 7.581-.884 13.441 1.773 20.375 4.625q3.483 1.39 6.969 2.77l3.433 1.361c4.321 1.668 8.689 3.142 13.098 4.557a181 181 0 0 1 16.566 6.257c6.187 2.486 12.51 4.593 18.816 6.752l2.938 1.006 2.657.903C396 332 396 332 398 333V168zm309 154c1.795 6.549 4.043 12.883 6.464 19.221 2.218 5.844 4.261 11.74 6.286 17.654 3.333 9.7 6.954 19.271 10.67 28.831a600 600 0 0 1 7.536 20.454c1.818 5.237 3.754 10.422 5.722 15.603 2.062 5.462 3.98 10.969 5.885 16.487 1.817 5.257 3.66 10.456 5.875 15.563 4.105 9.492 7.226 19.404 10.562 29.187h2a132 132 0 0 0 4.875-6.5q1.483-2.061 2.969-4.121l1.562-2.175c2.617-3.619 5.29-7.194 7.969-10.766l1.476-1.981c2.235-2.983 4.503-5.912 6.907-8.762 2.263-2.571 2.263-2.571 3.742-5.257 2.605-4.233 4.792-6.97 9.688-8.313 8.278 1.9 13.94 9.826 19.234 16.11 1.709 1.998 1.709 1.998 4.578 4.265 3.178 2.648 5.676 5.52 8.348 8.66 1.687 1.98 1.687 1.98 4.152 3.84 2.318 1.854 4.022 3.686 5.938 5.938 2.137 2.51 4.239 4.75 6.812 6.812 2.75 2.25 2.75 2.25 4.438 4.563L480 489c3.036.342 3.036.342 4.754-1.645l1.809-2.167 1.816-2.145c1.753-2.152 1.753-2.152 3.621-5.043l-1.93-1.903q-8.999-8.878-17.967-17.787a3257 3257 0 0 0-9.238-9.143q-4.466-4.404-8.909-8.831a760 760 0 0 0-3.405-3.362 686 686 0 0 1-4.756-4.725l-2.739-2.712c-2.165-2.67-2.824-4.143-3.056-7.537 1.095-4.372 2.952-6.082 6.625-8.562l2.996-2.083 1.644-1.135c3.197-2.248 6.304-4.616 9.423-6.97l4.085-3.074 2.09-1.572q3.301-2.475 6.614-4.936l2.2-1.64q2.09-1.556 4.183-3.107l1.91-1.425 1.675-1.244c1.638-1.319 3.095-2.74 4.555-4.252-6.402-2.74-12.837-5.36-19.36-7.8l-2.083-.781c-8.622-3.211-17.313-6.227-26.004-9.244-8.03-2.792-15.945-5.688-23.769-9.025-4.606-1.903-9.315-3.49-14.034-5.087a844 844 0 0 1-25.734-9.302c-4.564-1.722-9.146-3.396-13.724-5.079a3589 3589 0 0 1-12.3-4.541c-8.618-3.2-17.238-6.328-25.992-9.141"/><path d="M265.804 199.418c3.577 3.022 6.89 6.27 10.196 9.582l1.973 1.758c15.736 14.266 24.513 38.274 25.937 59.012L304 272l.121 2.262C304.81 298.77 296.345 322.695 280 341l-1.492 1.82c-4.263 5.106-8.827 9.045-14.258 12.868-.799.565-1.597 1.131-2.42 1.715-5.71 3.972-11.244 7.281-17.83 9.597l-2.112.752a530 530 0 0 1-11.751 4.014l-1.978.649c-7.127 1.931-14.208 1.769-21.534 1.773l-3.617.037c-6.406.01-11.895-.306-18.008-2.225l-2.101-.63c-25.63-7.783-47.767-21.937-60.93-46.03-12.601-23.831-17.011-50.157-8.969-76.34 3.761-11.3 9.254-22.903 17-32l1.648-1.977c1.746-2.045 3.543-4.034 5.352-6.023l1.555-1.86c31.22-34.816 91.669-35.695 127.25-7.722M162 208v2a97 97 0 0 0 5.062 3.063c6.176 3.792 10.68 8.422 13.938 14.937.123 2.29.176 4.583.187 6.875l.043 3.742c-.217 3.194-.653 4.694-2.23 7.383-.667 2.957-.667 2.957 0 6 4.35 5.345 9.378 5.927 15.934 7.262 6.02 1.45 9.57 4.617 13.066 9.738 2.824 5.916 2.368 11.814 2.375 18.25l.074 3.605c.023 6.998-.104 13.38-4.449 19.145-5.596 5.104-12.648 7.843-19.688 10.375l-2.912 1.05c-8.53 2.909-16.867 4.835-25.537 1.294-2.87-1.723-4.544-3.357-6.676-5.906-2.828-2.96-2.828-2.96-6.558-4.403-4.139-.061-6.993.576-10.629 2.59 11.445 21.029 28.386 34.516 51.262 41.313 9.337 2.546 18.08 3.193 27.738 2.687l.028-1.677c.523-24.64.523-24.64 8.972-33.323a238 238 0 0 1 6-5.254c4.188-3.656 6.418-6.232 8.25-11.558 2.997-7.538 7.171-11.236 14.187-15.063 8.817-2.784 16.2-1.85 25.125-.187l3.346.591q4.05.72 8.092 1.471c3.805-18.41.81-37.144-7-54-1.982 1.925-3.646 3.816-5.375 6-4.026 4.6-7.896 6.69-13.94 7.193-23.112.734-23.112.734-31.236-6.591-5.97-6.94-8.218-18.497-7.765-27.43 1.088-7.47 5.674-13.342 11.507-17.875L235 200c-22.745-6.936-53.277-8.167-73 8m82 4.25-3.25 1.828c-2.726 1.905-3.784 2.796-4.75 5.922.21 6.191 1.789 11.663 5 17 3.695 2.463 6.596 2.367 10.875 2.375l2.145.074c3.594.02 5.74-.298 8.804-2.222 1.96-2.005 3.6-3.873 5.113-6.227l1.34-2c.957-1.997.957-1.997.043-4.008-4.53-6.835-10.072-12.095-17.32-15.992-3.16 0-5.287 1.698-8 3.25M149 219c-7.3 6.252-11.644 13.596-16 22l-1.508 2.855c-7.999 16.214-9.414 36.984-4.148 54.293L128 300l2.16-.437c9.065-1.757 16.246-2.357 24.84 1.437 3.006 2.05 4.975 3.968 7.25 6.813 2.678 2.577 2.678 2.577 6.687 2.312 8.602-1.5 17.472-4.84 25.063-9.125 2.83-4.245 2.368-7.883 2.375-12.875l.074-2.723c.018-4.109-.113-6.764-2.05-10.445-3.047-2.485-5.274-2.849-9.149-3.394-8.314-1.546-13.103-4.495-18.188-11.188-3.045-4.983-3.708-9.548-3.062-15.375q.709-2.091 1.562-4.125c1.507-3.727 1.959-5.988.438-9.875-4.553-5.287-11.011-8.602-17-12m102 91c-1.727 3.128-1.727 3.128-3.063 6.563-3.26 7.329-8.088 11.895-14.144 17.011-3.545 3.079-4.693 4.509-5.207 9.219q-.12 2.197-.211 4.395l-.117 2.271A769 769 0 0 0 228 355c12.487-1.49 21.387-7.183 31-15l1.957-1.457c9.641-7.474 16.179-18.569 21.043-29.543-1.648-.48-3.297-.958-4.95-1.422a502 502 0 0 1-5.863-1.703c-8.02-1.916-14.31-2.413-20.187 4.125m28.906-202.387c4.813 5.487 6.449 10.036 6.301 17.313-.782 7.837-6.378 13.929-12.242 18.746-5.274 3.565-11.874 2.827-17.965 2.328-6.65-1.709-11.186-6.465-15-12-2.722-5.517-2.525-10.972-2-17 2.818-8.01 8.552-13.29 16-17 9.813-3.271 17.907.92 24.906 7.613M255 119c-1.256 3.69-1.344 5.264.313 8.813 2.143 2.778 3.03 3.1 6.5 3.562 3.349-.127 3.349-.127 6.062-2.5 2.307-2.702 2.307-2.702 2.75-5.875-.842-4.044-2.359-5.532-5.625-8-4.528-1.019-6.908.736-10 4m161.375-89.5c5.576 3.343 9.642 8.063 12.063 14.063 1.354 8.278.312 15.17-4.25 22.25-5.414 5.413-10.97 7.797-18.563 8.5-6.6-.57-13.029-2.344-17.625-7.313-4.34-6.156-6.995-11.732-6.516-19.363 1.375-7.03 5.252-11.958 10.672-16.446 6.916-4.468 16.668-5.03 24.219-1.691m-16.812 15.063c-2.167 3.38-2.126 5.497-1.563 9.437 1.417 2.583 1.417 2.583 4 4 3.625.453 6.052.389 9.438-1 2.03-2.6 2.126-4.813 1.94-8.059-.297-2.144-.297-2.144-1.94-4.441-4.147-2.551-7.771-2.568-11.875.063M375 107c4.66 4.66 5.798 9.46 6.313 15.938-.261 7.511-3.334 12.964-8.446 18.363-5.695 5.183-11.414 5.175-18.84 4.988-3.652-.349-6.02-1.184-9.027-3.289l-2.625-1.75c-4.204-3.982-7.132-9.058-7.578-14.922-.12-7.819.255-12.79 5.39-18.953C352.313 97.136 362.648 96.583 375 107m-25 13c-.833 3-.833 3 0 6 2.486 3.363 3.914 4.8 8.063 5.563 2.975-.385 2.975-.385 5.312-2.063 2.28-3.506 2.443-6.429 1.625-10.5-1.46-2.627-1.46-2.627-4-4-5.433-1.04-7.786.651-11 5m-26.012-15.676c5.303 4.417 8.566 8.942 9.23 15.996.246 6.682-.524 12.292-4.765 17.625-5.4 5.712-9.868 8.199-17.828 8.493-7.018-.2-11.49-1.459-16.594-6.31-5.944-6.443-7.479-11.46-7.265-20.198.507-6.346 2.886-9.87 7.359-14.18 9.672-8.06 19.616-8.919 29.863-1.426m-21.136 14.887c-1.526 3.204-.901 5.519.148 8.789 2.254 2.588 3.605 2.942 7 3.438 3.064-.209 3.064-.209 5.313-2.125 1.914-2.624 2.608-4.065 2.687-7.313-1.386-2.837-2.77-4.77-5-7-4.866-.865-7.188.18-10.148 4.21M464.5 29.625c5.676 3.382 9.922 9.07 12.188 15.25 1.131 7.696-.674 12.701-4.563 19.313C468.05 69.58 463.447 72.292 457 74c-7.03.767-13.253-1.15-19.062-5.062L436 67v-2h-2c-4.097-6.658-5.036-12.222-4-20 2.09-6.787 6.447-11.663 12.5-15.312 6.714-3.116 15.256-3.103 22-.063M445 48c0 3.52.369 5.85 2.063 8.938 3.202 1.756 6.434 1.682 9.937 1.062 2.647-1.397 2.647-1.397 4-4 .75-3.5.75-3.5 0-7-2.549-2.924-4.195-3.85-8-4.562-4.142.776-5.593 2.134-8 5.562"/><path d="M368.5 29.688C375.068 33.66 378.786 38.701 381 46c1.176 7.698-.914 13.9-5.187 20.25-5.082 4.968-10.908 7.36-17.938 8.063-6.363-.514-11.72-2.627-16.75-6.563-5.888-7.62-7.302-14.052-6.125-23.75 1.703-6.198 5.675-10.524 11-14 6.752-3.308 15.654-3.533 22.5-.312M352.063 45c-2.141 3.114-2.378 3.655-2.063 7.188.606 4.029.606 4.029 4 5.812 3.49.542 6.814.593 10-1 1.631-3.263 1.63-6.486 1-10-1.46-2.627-1.46-2.627-4-4-4.05-.776-5.515-.33-8.937 2"/></svg>