<svg xmlns="http://www.w3.org/2000/svg" width="512" height="432"><path d="m32.358.74 3.835-.021 4.19.007 4.47-.016c4.09-.014 8.181-.016 12.272-.015C61.538.693 65.952.68 70.365.668 80.014.646 89.663.638 99.312.633q9.04-.006 18.08-.017c16.692-.02 33.384-.036 50.076-.04h3.236l9.753-.002h3.26C201.15.57 218.581.544 236.013.506q26.856-.057 53.712-.058c10.05 0 20.1-.009 30.149-.038a5554 5554 0 0 1 25.675-.017c4.364.008 8.727.007 13.091-.016q6.002-.03 12.003.003a350 350 0 0 0 4.325-.016c9.877-.092 19.344.873 27.2 7.451 1.89 1.935 3.343 3.929 4.832 6.185l1.59 2.252c6.166 10.267 5.252 21.062 5.183 32.683q.012 3.476.032 6.95c.029 6.262.02 12.523.005 18.785-.01 6.554.015 13.109.036 19.663.032 10.992.04 21.983.034 32.975q-.01 16.974.022 33.948l.005 2.118.022 10.518c.062 29.036.08 58.072.071 87.108l7.7 2.893 2.191.823a605 605 0 0 0 14.793 5.354l4.369 1.528q3.31 1.154 6.62 2.303c7.172 2.491 14.276 4.972 21.169 8.174 4.53 1.942 9.278 3.308 13.97 4.8 22.077 7.218 22.077 7.218 26 12.621C512 302 512 302 511.687 304.875c-3.576 6.623-10.088 10.526-16.286 14.517-2.267 1.518-4.402 3.12-6.542 4.811-5.003 3.923-10.08 7.74-15.172 11.547l-2.666 1.996-4.874 3.648L464 343l-2.278 1.583L460 346v2c1.62 1.6 1.62 1.6 3.687 3.25 3.532 2.993 6.347 6.19 9.313 9.75a185 185 0 0 0 4 3.5c3.413 2.904 6.128 6.054 9 9.5 2.02 1.825 4.087 3.584 6.16 5.348 2.24 2.011 3.961 4.303 5.84 6.652a200 200 0 0 0 4 3.5c3.804 3.272 7.138 6.202 8.937 11 .136 5.409-4.375 9.746-7.937 13.5-2 1.793-4.038 3.532-6.086 5.27-1.719 1.553-3.117 3.097-4.539 4.918-3.746 4.435-7.548 7.126-13.375 7.812v-2h-3c-1.43-1.355-1.43-1.355-2.875-3.187-3.81-4.657-7.963-8.68-12.5-12.625-3.653-3.212-6.809-6.606-9.941-10.317-2.143-2.38-4.522-4.339-6.993-6.367-2.358-2.097-4.282-4.483-6.289-6.91-1.91-2.17-4.115-3.835-6.402-5.594a501 501 0 0 1-5-5q-8.968 11.588-17.738 23.325a631 631 0 0 1-9.61 12.515c-2.69 3.517-5.22 7.15-7.757 10.777-2.683 3.375-4.605 5.168-8.895 5.883-3-.5-3-.5-5.125-2.375-4.594-7.656-7.149-16.555-10.125-24.937-2.87-8.036-5.806-16.039-8.875-24A842 842 0 0 1 350 359.875l-.918-2.57-.832-2.375-.734-2.087C347 351 347 351 347 348l-2-1a110 110 0 0 1-2.625-6.937l-.695-1.96C340 333.29 340 333.29 340 331l-2.002.005a95799 95799 0 0 1-131.604.215l-2.838.003c-15.157.017-30.314.049-45.471.086q-23.334.056-46.668.067-14.395.008-28.79.056-9.874.03-19.75.022c-3.796-.003-7.592.001-11.39.023-4.12.023-8.242.015-12.364.004l-3.614.035C25.851 331.447 16.024 329.11 9 322c-7.372-10.317-9.151-19.402-9.14-31.853l-.01-3.319q-.01-5.505-.011-11.012l-.015-7.895q-.02-10.726-.024-21.453-.005-6.704-.012-13.407-.019-18.576-.026-37.152v-4.806l-.003-7.244q-.008-19.381-.045-38.764-.035-19.92-.037-39.84.001-11.175-.025-22.352-.023-9.519-.012-19.038.007-4.85-.011-9.701c-.013-3.517-.007-7.033.004-10.549l-.025-3.053C-.312 28.904 2.237 17.965 10 9 16.675 3.73 23.816.755 32.358.74M21.04 20.719 19.625 22.5l-1.46 1.781C8.487 38.568 16 58.745 16 76h382c3.95-31.866 3.95-31.866-5.64-54.96l-1.61-1.415-1.578-1.46c-6.899-3.699-16.742-2.31-24.336-2.305l-4.325-.01q-5.921-.01-11.842-.01-6.394-.005-12.788-.016-13.968-.02-27.935-.024-8.723-.005-17.444-.012a88396 88396 0 0 0-51.428-.026h-3.128l-9.417-.003q-25.236-.008-50.472-.045-25.915-.035-51.831-.037-14.55.001-29.097-.025-12.383-.023-24.764-.012-6.317.008-12.634-.011a1793 1793 0 0 0-11.567 0q-2.092.004-4.183-.01c-11.31-.199-11.31-.199-20.942 5.1M16 91l-.25 105.5-.11 33.318c-.014 9.852-.014 9.852-.022 19.703q-.007 6.585-.04 13.17-.04 8.4-.03 16.8a887 887 0 0 1-.025 6.164 747 747 0 0 0-.004 8.335l-.035 2.428c.058 5.568 1.319 9.965 4.516 14.582 4.67 3.717 8.248 5.125 14.148 5.123l3.248.006 3.582-.009 3.794.003q5.223.002 10.446-.007 5.629-.005 11.258-.002 9.756 0 19.511-.008 14.105-.011 28.21-.012 22.883-.004 45.767-.019 22.23-.014 44.463-.02h2.768l13.744-.005q57.03-.016 114.061-.05l-.606-1.644-2.75-7.461-.954-2.586a2935 2935 0 0 1-7.836-21.538c-1.54-4.253-3.123-8.475-4.827-12.666-2.292-5.675-4.289-11.443-6.277-17.23l-1.102-3.187Q309.321 245.845 308 242h-2a434 434 0 0 1-.625-5.75l-.352-3.234c-.023-3.054.363-4.478 1.977-7.016 6.819-.866 11.953.474 18.212 3.165 6.743 2.887 13.622 5.332 20.538 7.773l7.336 2.601 3.57 1.267c5.347 1.91 10.672 3.877 15.996 5.85 5.804 2.151 11.628 4.24 17.465 6.301 2.649.958 5.268 1.997 7.883 3.043V91zm309 154a527 527 0 0 0 5.437 17.563l1.184 3.628c.958 2.774 2.081 5.422 3.3 8.09 2.314 5.106 4.102 10.349 5.891 15.657 2.458 7.188 5.003 14.316 7.813 21.375 2.678 6.726 5.064 13.51 7.247 20.413 1.158 3.608 2.442 7.057 4.026 10.5 2.604 5.714 4.541 11.64 6.54 17.587 2.53 7.529 5.228 14.897 8.337 22.207 2.057 5.003 3.793 10.112 5.537 15.23l1.088 3.16q1.305 3.794 2.6 7.59c3.94-1.313 5.203-3.769 7.437-7.062q1.338-1.923 2.68-3.84l1.421-2.035c2.442-3.446 4.981-6.817 7.524-10.188l1.528-2.025 2.985-3.954a806 806 0 0 0 4.046-5.435L414 370.25l2.062-2.797c4.905-6.21 4.905-6.21 9.125-7.203 7.987 1.571 13.146 8.966 18.2 14.95 1.738 2.027 1.738 2.027 4.613 4.3 3.156 2.63 5.628 5.475 8.281 8.594 1.826 2.116 1.826 2.116 4.719 4.406 2.498 2.082 4.41 4.043 6.5 6.5 2.935 3.446 5.978 6.167 9.5 9 1.71 1.63 3.354 3.305 5 5l2.312-2.875c1.843-2.291 3.156-3.437 5.688-5.125v-2h2l-1-3h-2l-.719-1.702c-1.574-2.824-3.498-4.774-5.781-7.064l-2.688-2.695L477 385.75l-2.813-2.836-2.687-2.68-2.469-2.462c-1.833-1.991-1.833-1.991-4.031-1.772l-.705-1.702c-1.623-2.88-3.627-4.784-6.014-7.071l-2.824-2.75a1035 1035 0 0 0-4.444-4.272 620 620 0 0 1-4.294-4.166l-2.596-2.494c-2.35-2.816-3.326-4.978-4.123-8.545 1.694-5.33 4.507-7.41 9.187-10.25A129 129 0 0 0 455 331v-2l1.77-.855c8.137-4.176 15.265-10.158 22.465-15.738l2.167-1.677c.645-.5 1.29-1.002 1.953-1.518C485 308 485 308 487 307v-3l-2.269-.807c-21.534-7.663-43.028-15.426-64.38-23.588-6.842-2.566-13.787-4.857-20.708-7.2-4.799-1.645-9.537-3.286-14.147-5.409-5.671-2.61-11.584-4.51-17.496-6.496-6.82-2.292-13.547-4.58-20.067-7.637-3.541-1.581-7.243-2.685-10.933-3.863q-3.282-1.09-6.563-2.187l-3.128-1.043z"/><path d="M266.25 122.875c21.35 17.956 34.629 40.593 37.438 68.453 2.1 24.69-4.982 48.712-19.688 68.672h-2l-.785 1.734C276.692 270.17 268.792 275.817 261 281l-2.223 1.55c-20.56 13.454-45.673 18.21-69.718 13.762-15.35-3.221-29.883-9.423-42.059-19.312a349 349 0 0 0-4.187-2.875L140 272v-2h-2c-3.237-3.468-6.09-7.257-9-11l-1.902-2.395c-15.625-20.797-20.239-47.325-16.727-72.593 1.141-7.607 2.674-14.971 6.406-21.754 1.312-2.423 2.472-4.905 3.646-7.397 3.096-6.478 6.56-11.709 11.577-16.861a766 766 0 0 0 3.313-3.937c33.067-37.283 91.786-41.421 130.937-11.188M162 131v2c1.85 1.453 1.85 1.453 4.188 2.875l2.496 1.625L171 139c4.639 3.163 8.037 6.696 10 12 .686 6.254 1.188 12.406-2 18-.667 2.957-.667 2.957 0 6 4.35 5.345 9.378 5.927 15.934 7.262 6.02 1.45 9.57 4.617 13.066 9.738 2.824 5.916 2.368 11.814 2.375 18.25l.074 3.605c.023 7-.106 13.376-4.449 19.145-5.698 5.24-12.86 7.803-20.062 10.313l-2.854 1.048c-8.575 3.062-16.273 4.862-25.084 1.639-3.797-2.093-6.6-4.538-9.437-7.812-2.71-2.314-3.26-2.539-6.625-2.625-3.45.383-5.03.825-7.938 2.437q1.185 2.157 2.375 4.313l1.336 2.425c1.024 1.797 2.142 3.541 3.289 5.262h2l.86 1.805c7.642 14.71 26.128 22.73 41.148 27.511 9.377 2.745 18.272 3.15 27.992 2.684l.028-1.677c.523-24.64.523-24.64 8.972-33.323a238 238 0 0 1 6-5.254c4.203-3.669 6.445-6.285 8.313-11.621 2.26-5.664 4.531-8.898 9.687-12.125l1.91-1.207c7.86-4.423 15.659-4.093 24.278-2.418l2.326.422q2.225.405 4.448.823c2.673.498 5.354.943 8.038 1.38 3.665-17.97 1.313-37.671-7-54-2.12 2.045-3.94 4.18-5.75 6.5-4.788 5.522-9.448 6.566-16.5 7.25-10.6.546-19.29.444-27.75-6.75-3.31-4.237-4.847-8.132-6.187-13.312-.783-4.158-.783-4.158-2.813-7.688.617-7.671 1.768-14.942 7.523-20.46 1.454-1.228 2.963-2.388 4.477-3.54l2-2c-24.966-9.228-50.338-4.416-73 8m82 4.25-3.25 1.828c-2.726 1.905-3.79 2.793-4.75 5.922.307 6.137 1.237 13.076 5.61 17.703 3.38 1.834 6.578 1.772 10.327 1.734l2.131.061c3.572-.003 5.712-.36 8.752-2.275 1.964-2.003 3.604-3.868 5.118-6.223l1.34-2c.956-1.997.956-1.997.042-4.008-4.53-6.835-10.072-12.095-17.32-15.992-3.16 0-5.287 1.698-8 3.25m-98.062 9.625-1.66 1.617c-1.493 1.433-1.493 1.433-1.278 3.508h-2c-12.615 21.443-20.77 43.173-14.5 68.375.472 1.55.959 3.097 1.5 4.625l2.16-.437c8.93-1.731 16.413-2.57 24.84 1.437 2.75 2.438 2.75 2.438 5 5 2.898 3.123 2.898 3.123 6.89 4.056 5.999-.686 11.344-2.247 16.985-4.369l2.547-.896c3.188-1.18 5.94-2.288 8.617-4.4 1.616-4.02 1.473-8.04 1.461-12.328l.086-2.71c.013-4.38-.127-6.687-2.66-10.365-3.428-2.33-6.182-3.06-10.238-3.863-8.116-1.846-12.794-5.11-17.625-11.812-2.927-6.37-2.857-12.53-.5-19.063l.878-2.172c.687-2.555.563-3.63-.441-6.078-2.804-4.15-6.005-6.607-10.187-9.312l-3.231-2.114c-3.722-2.269-3.715-1.594-6.644 1.301M250 234c-1.155 2.476-2.075 4.973-2.988 7.547-2.596 6.294-8.046 10.534-13.18 14.777-3.558 3.255-5.248 5.85-5.832 10.676a127 127 0 0 0-.062 5.813l.027 2.957L228 278c15.56-1.037 30.026-12.514 40.313-23.46 6.002-6.916 9.933-14.272 13.687-22.54l-2.738-.621-3.575-.816-3.55-.81C269 229 269 229 266 228c-7.037-1.077-11.641.207-16 6m27-206c5.717 5.459 8.676 9.923 9.313 17.938-.28 8.156-4.72 13.529-10.313 19.062-5.596 4.597-11.909 5.135-19 5-5.431-1.482-9.393-4.717-13-9v-2h-2c-3.658-6.707-4.426-13.914-2.344-21.34C242.623 30.998 248.522 26.156 255 23c8.51-2.27 15.325-.41 22 5m-21.562 13.063c-1.884 3.849-1.646 5.861-.438 9.937 2.232 2.563 3.58 2.938 6.938 3.438C265.839 53.88 267.41 52.97 270 50c.632-3.933.6-6.025-1.5-9.437-3.03-1.894-5.058-2.206-8.59-2.008-2.19.365-2.19.365-4.473 2.508m65.751-15.938C326.936 29.106 331.623 33.98 333 41c.778 7.095-.029 12.97-4 19-4.622 5.373-9.948 8.873-17 10-6.983.162-12.391-1.64-17.625-6.375-6.316-6.981-7.818-11.052-7.715-20.45.62-5.786 2.855-10.61 6.914-14.8 8.2-6.422 18.357-8.565 27.613-3.25m-17.688 15.5c-1.982 3.138-2.17 4.724-1.5 8.375 2.486 3.363 3.914 4.8 8.063 5.563 2.975-.385 2.975-.385 5.312-2.063 2.432-3.741 2.117-6.074 1.625-10.5-.833-2.167-.833-2.167-3-3-5.592-.65-5.592-.65-10.5 1.625M371.8 27.398c5.194 3.782 7.62 8.5 9.2 14.602.754 6.681-.588 12.172-4 18-4.216 4.691-8.762 8.657-15.172 9.336-13.459.147-13.459.147-18.828-4.336-6.194-6.652-8.554-12.784-8.375-21.86.688-5.762 2.897-10.583 6.95-14.765 9.976-7.814 19.858-7.677 30.226-.977m-20.863 13.227c-1.235 3.13-1.482 5.035-.937 8.375 2.486 3.363 3.914 4.8 8.063 5.563 2.975-.385 2.975-.385 5.312-2.063 2.432-3.741 2.117-6.074 1.625-10.5-1.59-2.192-2.488-2.897-5.156-3.434-4.806-.118-4.806-.118-8.906 2.059"/></svg>