<svg xmlns="http://www.w3.org/2000/svg" width="100" height="100" fill="#0054ff"><path d="M37.3 13.8c-8.4 5.3-15.1 9.8-14.9 9.9.1.1 1.8-.2 3.7-.7 11.3-3.3 31.3 1.4 44.5 10.4 2.1 1.4 4.6 2.6 5.4 2.6 1.7 0 9.1-7.3 10.8-10.6.8-1.6.8-2.5-.1-3.6-1.3-1.6-31.9-17.9-33.3-17.7-.5 0-7.7 4.4-16.1 9.7"/><path d="M23 25.4c-9.7 2.7-9.4 2.2-8.6 15.9.3 6.6.6 14.5.6 17.6l.1 5.6 1.8-4.5c4.7-12 16-23.3 31.1-31l4.5-2.4-4-1.2c-5.1-1.6-19.7-1.6-25.5 0"/><path d="M28.4 45.2c-7.1 7.7-12.9 20.3-12.2 26.5.3 2.4 1.1 3 5.8 4.5 6.3 1.9 20.5 2.3 26.2.8l3.8-1.1-5.8-5.7c-6.6-6.5-10.6-13.8-12.5-23.1l-1.2-6.3z"/><path d="M66.5 71.1C56.1 76.9 45.5 80 36 80c-4.3 0-9.1-.5-10.7-1.1-4.2-1.5-2.1 0 12.5 9.5 7.5 4.9 14.4 8.6 15.8 8.6 3.4 0 32.1-14.5 33.3-16.9.9-1.6.3-2.9-3.5-7.5-5.7-6.8-7.2-7-16.9-1.5"/></svg>